Coordinates
version=1
nRows=18
nColumns=26
inDegrees=yes

Units are S.I. units (second, meters, Newtons, ...)
If the header above contains a line with 'inDegrees', this indicates whether rotational values are in degrees (yes) or radians (no).

endheader
time	pelvis_tilt	pelvis_list	pelvis_rotation	pelvis_tx	pelvis_ty	pelvis_tz	hip_flexion_r	hip_adduction_r	hip_rotation_r	knee_angle_r	knee_angle_r_beta	hip_flexion_l	hip_adduction_l	hip_rotation_l	knee_angle_l	knee_angle_l_beta	lumbar_extension	lumbar_bending	lumbar_rotation	ankle_angle_r	subtalar_angle_r	mtp_angle_r	ankle_angle_l	subtalar_angle_l	mtp_angle_l
      0.80000000	     -8.08328413	      0.13296247	     16.11863133	     -0.55905008	      0.84334072	      0.21555650	     33.89688696	     -9.01306829	     -1.69762752	     10.85465332	      0.18944944	     -2.18643403	      1.58229315	     17.39274628	     18.02893680	      0.31466431	     -0.74251081	     -4.34029070	    -15.65137457	      2.52525684	     -0.69250510	      0.00000000	     22.82923536	     -0.40207886	      0.00000000
      0.81000000	     -7.75282623	     -0.23539478	     16.21523793	     -0.54661136	      0.84310712	      0.21684719	     33.76206045	     -8.43208663	     -1.94069667	     12.44055965	      0.21712873	     -2.62531626	      0.89014444	     17.35716264	     19.18483142	      0.33483847	     -0.76598598	     -3.77183804	    -15.68597012	      1.57869663	     -1.45136609	      0.00000000	     22.17592781	     -0.74000061	      0.00000000
      0.82000000	     -7.83319321	     -0.70357841	     16.36745579	     -0.53443014	      0.84246607	      0.21825015	     34.03162886	     -7.82889476	     -1.90848964	     13.88505511	      0.24233993	     -2.18350609	      0.26657994	     17.34066092	     21.10539960	      0.36835871	     -0.31313719	     -3.27849859	    -15.90497644	      0.00168571	     -2.78617200	      0.00000000	     21.62267756	     -0.68409267	      0.00000000
      0.83000000	     -7.67620658	     -1.18520468	     16.39333777	     -0.52190709	      0.84225903	      0.21974719	     33.98717545	     -7.08309787	     -1.98042244	     15.22709994	      0.26576303	     -1.99952963	     -0.44412530	     17.14592721	     22.96095615	      0.40074428	     -0.08794136	     -2.64125941	    -15.97935313	     -1.43137679	     -3.86038310	      0.00000000	     20.70221844	     -0.80494122	      0.00000000
      0.84000000	     -7.51087158	     -1.69103547	     16.32836819	     -0.50932218	      0.84219441	      0.22136742	     33.87609131	     -6.22693884	     -1.90020850	     16.41039040	      0.28641534	     -1.66264788	     -1.17495164	     16.77133833	     25.03507769	      0.43694453	      0.13433495	     -1.96219428	    -15.97506945	     -2.80388753	     -4.99636401	      0.00000000	     19.49577150	     -0.91737729	      0.00000000
      0.85000000	     -7.36087836	     -2.23429290	     16.22987894	     -0.49674937	      0.84226714	      0.22305724	     33.73406700	     -5.31312388	     -1.84383765	     17.48292783	      0.30513465	     -1.14267188	     -1.90697568	     16.43010206	     27.31072935	      0.47666215	      0.38505316	     -1.23517827	    -15.99936910	     -3.80046153	     -5.91499004	      0.00000000	     17.87929018	     -1.18404603	      0.00000000
      0.86000000	     -7.03584771	     -2.79086981	     16.02924396	     -0.48402100	      0.84271990	      0.22486288	     33.32980758	     -4.27943745	     -1.82481116	     18.43715955	      0.32178914	     -0.71497900	     -2.71898783	     15.87709448	     29.62890702	      0.51712198	      0.44225547	     -0.41045907	    -15.87353439	     -4.23829988	     -6.50123294	      0.00000000	     15.70851796	     -1.66218658	      0.00000000
      0.87000000	     -7.07729183	     -3.45967748	     15.86682358	     -0.47173416	      0.84276945	      0.22672393	     33.30416230	     -3.20112348	     -1.58407242	     19.25296159	      0.33602757	      0.47439028	     -3.49079630	     15.49700553	     32.44659527	      0.56629992	      0.89320281	      0.39505570	    -15.90153315	     -4.79604830	     -7.63872982	      0.00000000	     13.34309597	     -1.82266750	      0.00000000
      0.88000000	     -6.98208171	     -4.14404219	     15.63109732	     -0.45939805	      0.84310947	      0.22868030	     33.05183247	     -2.01868869	     -1.36343957	     19.95068887	      0.34820521	      1.61639130	     -4.34407884	     14.99131249	     35.27467549	      0.61565923	      1.19174093	      1.28851312	    -15.81240821	     -4.91954583	     -8.60900619	      0.00000000	     10.41196375	     -2.13460626	      0.00000000
      0.89000000	     -6.88652415	     -4.84706843	     15.37302472	     -0.44721355	      0.84354357	      0.23066311	     32.74171130	     -0.79641140	     -1.14458881	     20.56828716	      0.35898433	      2.92186897	     -5.20386803	     14.52487386	     38.20669134	      0.66683256	      1.46017203	      2.21836067	    -15.72297745	     -4.75168929	     -9.53577291	      0.00000000	      6.95868729	     -2.52951476	      0.00000000
      0.90000000	     -6.79566193	     -5.55295529	     15.10972482	     -0.43512455	      0.84407771	      0.23267067	     32.35368012	      0.44247159	     -0.94915795	     21.08019123	      0.36791874	      4.36859838	     -6.06074197	     14.08517636	     41.18433443	      0.71880224	      1.70820379	      3.13276799	    -15.62256655	     -4.32418649	    -10.38190296	      0.00000000	      3.01182193	     -3.02985714	      0.00000000
      0.91000000	     -6.61051251	     -6.27291666	     14.76821728	     -0.42318237	      0.84475101	      0.23472040	     31.79092259	      1.74167079	     -0.87367923	     21.45241735	      0.37441532	      5.82563545	     -6.98976598	     13.54013773	     44.18310022	      0.77114057	      1.80465642	      4.11055375	    -15.37077267	     -3.65389787	    -10.89049033	      0.00000000	     -1.18625280	     -3.53510271	      0.00000000
      0.92000000	     -6.69370575	     -6.85775581	     14.57819736	     -0.41177402	      0.84525609	      0.23648839	     31.45969896	      2.75187185	     -0.77151801	     21.81079224	      0.38067014	      7.71772383	     -7.50687339	     13.54858435	     47.23773242	      0.82445396	      2.11756232	      4.84817170	    -15.32303362	     -3.01261244	    -11.53075640	      0.00000000	     -5.94716956	     -4.53039858	      0.00000000
      0.93000000	     -6.64096854	     -7.43888378	     14.34490588	     -0.40037820	      0.84597915	      0.23826556	     30.87940455	      3.81806997	     -0.69768976	     22.00398416	      0.38404197	      9.51523142	     -8.09098528	     13.42309750	     50.19499380	      0.87606791	      2.25416421	      5.62246799	    -15.18046682	     -2.21673023	    -11.92679841	      0.00000000	    -10.69198568	     -5.57390468	      0.00000000
      0.94000000	     -6.57807006	     -7.96817286	     14.14536428	     -0.38919931	      0.84677580	      0.23991918	     30.21047692	      4.81248972	     -0.64640297	     22.08796607	      0.38550773	     11.36259477	     -8.57020231	     13.39602094	     53.07327454	      0.92630339	      2.33279555	      6.34226755	    -15.03784819	     -1.37535570	    -12.20081202	      0.00000000	    -15.31130238	     -6.83198837	      0.00000000
      0.95000000	     -6.47290052	     -8.48389240	     13.94583763	     -0.37821231	      0.84763953	      0.24152372	     29.42806718	      5.80038110	     -0.60959174	     22.03637895	      0.38460737	     13.22663192	     -9.03015515	     13.36958530	     55.89341483	      0.97552412	      2.32664019	      7.05761251	    -14.86557907	     -0.58200912	    -12.31306795	      0.00000000	    -19.36143902	     -8.21531151	      0.00000000
      0.96000000	     -6.41683235	     -8.85902281	     13.80848952	     -0.36743121	      0.84856907	      0.24289475	     28.61189186	      6.58990113	     -0.55271630	     21.90901182	      0.38238439	     15.14324824	     -9.23397238	     13.43988574	     58.54446600	      1.02179369	      2.31372878	      7.59227646	    -14.71210201	      0.31290663	    -12.37959654	      0.00000000	    -23.17345025	    -10.02900239	      0.00000000
      0.97000000	     -6.07347205	     -8.88461921	     13.57224120	     -0.35678783	      0.85001805	      0.24433529	     27.37638715	      7.16674508	     -0.27831277	     21.73114841	      0.37928009	     16.55678697	     -9.14173918	     13.42903969	     61.04055775	      1.06535871	      1.77012533	      7.77419775	    -14.30003250	      1.07541546	    -12.43942119	      0.00000000	    -24.81265235	    -10.58097359	      0.00000000
